<svg height="464pt" viewBox="-56 0 464 464" width="464pt" xmlns="http://www.w3.org/2000/svg"><path d="m220.257812 268.273438c.941407-3.625 1.703126-7.292969 2.277344-10.992188.199219-1.25.410156-2.488281.570313-3.746094.160156-1.253906.300781-2.710937.414062-4.070312.28125-3.121094.480469-6.265625.480469-9.464844 0-2.207031-.207031-4.367188-.328125-6.542969-3.300781-56.636719-48.492187-101.828125-105.128906-105.128906-2.175781-.121094-4.335938-.328125-6.542969-.328125-9.546875.035156-19.046875 1.292969-28.273438 3.742188-17.425781 4.546874-33.492187 13.238281-46.832031 25.335937-.453125.417969-.910156.800781-1.367187 1.25-1.753906 1.636719-3.457032 3.332031-5.101563 5.085937-.609375.65625-1.203125 1.320313-1.800781 1.984376-1.503906 1.691406-2.992188 3.386718-4.394531 5.160156-.644531.800781-1.246094 1.664062-1.871094 2.503906-1.304687 1.738281-2.617187 3.464844-3.816406 5.28125-.558594.839844-1.039063 1.734375-1.597657 2.59375-1.867187 2.980469-3.589843 6.058594-5.160156 9.230469-.800781 1.664062-1.679687 3.320312-2.402344 5.039062-.589843 1.359375-1.109374 2.753907-1.65625 4.144531-.703124 1.816407-1.390624 3.632813-2.007812 5.488282-.453125 1.375-.863281 2.753906-1.261719 4.152344-.578125 1.976562-1.089843 4-1.554687 6.007812-.300782 1.335938-.605469 2.664062-.863282 4-.429687 2.273438-.757812 4.574219-1.046874 6.894531-.152344 1.160157-.335938 2.296875-.449219 3.464844-.335938 3.511719-.542969 7.046875-.542969 10.640625.03125 55.640625 40.925781 102.808594 96 110.726562v33.273438h-24c-8.835938 0-16 7.164062-16 16s7.164062 16 16 16h24v32c0 8.835938 7.164062 16 16 16s16-7.164062 16-16v-32h24c8.835938 0 16-7.164062 16-16s-7.164062-16-16-16h-24v-33.222656c1.671875-.242188 3.34375-.496094 4.992188-.800782 1.34375-.257812 2.671874-.5625 4-.863281 2.023437-.464843 4-.976562 6.007812-1.554687 1.398438-.398438 2.777344-.796875 4.152344-1.261719 1.855468-.617187 3.671875-1.304687 5.488281-2.007813 1.390625-.546874 2.785156-1.066406 4.144531-1.65625 1.71875-.753906 3.375-1.601562 5.039063-2.402343 3.199219-1.597657 6.304687-3.335938 9.320312-5.214844.800781-.511719 1.6875-.976563 2.503907-1.519531 1.816406-1.199219 3.542968-2.511719 5.289062-3.816406.796875-.625 1.679688-1.222657 2.496094-1.871094 1.773437-1.402344 3.46875-2.886719 5.160156-4.394532.664062-.597656 1.328125-1.191406 1.980469-1.796874 1.75-1.648438 3.445312-3.351563 5.089843-5.105469.425782-.457031.800782-.910157 1.246094-1.367188 12.109375-13.347656 20.804688-29.433593 25.347656-46.871093zm-188.257812-28.273438c0-2.480469.152344-4.929688.367188-7.359375.074218-.71875.160156-1.433594.25-2.144531.207031-1.785156.472656-3.550782.796874-5.296875.128907-.6875.25-1.382813.394532-2.070313.496094-2.304687 1.0625-4.59375 1.75-6.816406.074218-.234375.167968-.457031.242187-.6875.640625-2 1.367188-4 2.160157-5.890625.296874-.726563.613281-1.4375.933593-2.148437.65625-1.472657 1.351563-2.921876 2.089844-4.347657.359375-.6875.710937-1.390625 1.085937-2.0625 1.074219-1.9375 2.210938-3.832031 3.433594-5.664062.328125-.488281.695313-.945313 1.03125-1.414063.976563-1.398437 2-2.75 3.066406-4.050781.582032-.726563 1.183594-1.429687 1.789063-2.136719.914063-1.054687 1.847656-2.078125 2.808594-3.085937.640625-.671875 1.273437-1.359375 1.945312-2.007813 1.429688-1.402344 2.910157-2.753906 4.441407-4 .742187-.625 1.511718-1.199218 2.277343-1.792968 1.089844-.847657 2.183594-1.6875 3.320313-2.488282.863281-.597656 1.753906-1.183594 2.640625-1.757812 1.066406-.671875 2.132812-1.320313 3.199219-1.945313.90625-.527343 1.800781-1.0625 2.730468-1.550781 1.820313-.960938 3.679688-1.867188 5.597656-2.6875 26.066407-11.226562 56.132813-7.800781 79.003907 9.003906 22.875 16.804688 35.132812 44.46875 32.210937 72.699219 0 .328125-.109375.640625-.140625.960937-.28125 2.398438-.632812 4.796876-1.121093 7.140626 0 .121093-.066407.234374-.089844.355468-1.105469 5.121094-2.714844 10.125-4.800782 14.933594-.796874 1.90625-1.726562 3.761719-2.6875 5.601562-.488281.925782-1.023437 1.816407-1.542968 2.71875-.632813 1.066407-1.285156 2.132813-1.953125 3.199219-.574219.890625-1.160157 1.777344-1.757813 2.640625-.800781 1.136719-1.601562 2.230469-2.488281 3.320313-.59375.761719-1.167969 1.535156-1.792969 2.273437-1.289062 1.535156-2.640625 3.015625-4 4.453125-.648437.664063-1.328125 1.289063-2 1.929688-1.007812.964843-2.039062 1.90625-3.09375 2.824219-.707031.597656-1.410156 1.199218-2.128906 1.777343-1.324219 1.066407-2.679688 2.078125-4.074219 3.039063-.46875.335937-.917969.695312-1.398437 1.015625-1.832032 1.230469-3.726563 2.398437-5.664063 3.441406-.671875.382813-1.375.726563-2.0625 1.085937-1.425781.734376-2.875 1.433594-4.34375 2.089844-.714843.316406-1.425781.636719-2.152343.933594-1.929688.800781-3.890626 1.519531-5.890626 2.160156-.230468.074219-.453124.167969-.6875.242188-2.230468.6875-4.511718 1.253906-6.816406 1.75-.6875.144531-1.382812.265625-2.070312.390625-1.746094.328125-3.511719.59375-5.296875.800781-.710938.089844-1.421875.175781-2.144531.25-2.398438.214844-4.878907.367188-7.359376.367188-44.183593.003906-80.003906-35.808594-80.007812-79.992188zm0 0" fill="#eb3936"/><path d="m336 0h-64c-8.835938 0-16 7.164062-16 16s7.164062 16 16 16h25.375l-38.976562 37.929688c-38.453126-28.421876-90.714844-29.273438-130.078126-2.121094-39.359374 27.152344-57.125 76.3125-44.214843 122.351562 12.910156 46.042969 53.644531 78.796875 101.382812 81.527344 4.316407-10.003906 6.53125-20.789062 6.511719-31.6875-41.035156.007812-75.425781-31.03125-79.601562-71.855469-4.179688-40.824219 23.210937-78.1875 63.398437-86.488281 40.183594-8.304688 80.136719 15.144531 92.480469 54.28125s-6.925782 81.261719-44.605469 97.519531c.121094 2.175781.328125 4.335938.328125 6.542969-.035156 9.546875-1.292969 19.046875-3.742188 28.273438 35.957032-9.304688 64.941407-35.867188 77.335938-70.882813 12.394531-35.011719 6.578125-73.898437-15.523438-103.75l37.929688-39.015625v25.375c0 8.835938 7.164062 16 16 16s16-7.164062 16-16v-64c0-8.835938-7.164062-16-16-16zm0 0" fill="#eca518"/></svg>