<?xml version="1.0"?>
<svg xmlns="http://www.w3.org/2000/svg" viewBox="0 0 64 64" width="512" height="512"><title>Layout-template-page-templates-web</title><g id="Flat"><path d="M7,10V57H43V10a3,3,0,0,1,3-3H10A3,3,0,0,0,7,10Z" style="fill:#56a8c6"/><rect x="12" y="25" width="12" height="11" style="fill:#f7931e"/><rect x="12" y="41" width="12" height="11" style="fill:#f7931e"/><path d="M49,15H43V10a3,3,0,0,1,3-3h0a3,3,0,0,1,3,3Z" style="fill:#196aaf"/><rect x="21" y="24" width="36" height="37" rx="3" ry="3" style="fill:#dfd9d3"/><path d="M57,27a3,3,0,0,0-3-3H24a3,3,0,0,0-3,3v5H57Z" style="fill:#0071bc"/><rect x="24" y="27" width="2" height="2" style="fill:#da4836"/><rect x="28" y="27" width="2" height="2" style="fill:#f8cf26"/><rect x="32" y="27" width="2" height="2" style="fill:#3dbf50"/><rect x="45" y="36" width="2" height="2" style="fill:#b4b0aa"/><rect x="49" y="36" width="4" height="2" style="fill:#b4b0aa"/><rect x="25" y="52" width="2" height="2" style="fill:#b4b0aa"/><rect x="29" y="52" width="24" height="2" style="fill:#b4b0aa"/><rect x="25" y="56" width="28" height="2" style="fill:#b4b0aa"/><rect x="45" y="40" width="8" height="2" style="fill:#b4b0aa"/><rect x="45" y="44" width="8" height="2" style="fill:#b4b0aa"/><rect x="45" y="48" width="8" height="2" style="fill:#b4b0aa"/><rect x="11" y="11" width="2" height="2" style="fill:#80c5d4"/><rect x="15" y="11" width="8" height="2" style="fill:#80c5d4"/><rect x="11" y="15" width="12" height="2" style="fill:#80c5d4"/><rect x="11" y="19" width="12" height="2" style="fill:#80c5d4"/><rect x="27" y="11" width="2" height="2" style="fill:#80c5d4"/><rect x="31" y="11" width="8" height="2" style="fill:#80c5d4"/><rect x="27" y="15" width="12" height="2" style="fill:#80c5d4"/><rect x="27" y="19" width="12" height="2" style="fill:#80c5d4"/><rect x="60" y="32" width="2" height="23" style="fill:#dfd9d3"/><rect x="2" y="16" width="2" height="23" style="fill:#dfd9d3"/><rect x="2" y="41" width="2" height="2" style="fill:#dfd9d3"/><rect x="24" y="2" width="20" height="2" style="fill:#dfd9d3"/><rect x="26" y="37" width="15" height="12" style="fill:#56a8c6"/><polygon points="41 46 38 43 35 46 31 42 26 47 26 49 41 49 41 46" style="fill:#009245"/><rect x="34" y="40" width="2" height="2" style="fill:#fbb03b"/></g></svg>
